<svg width="89" height="9" viewBox="0 0 89 9" fill="none" xmlns="http://www.w3.org/2000/svg">
<path d="M2.42379 8.77205C1.62379 8.77205 1.01979 8.63605 0.611785 8.36405C0.203785 8.08405 -0.000214815 7.58005 -0.000214815 6.85205C0.159785 2.85205 0.415785 0.944046 0.767785 1.12805C0.943785 1.13605 1.03179 1.40805 1.03179 1.94405C1.03179 2.27205 0.975785 2.96405 0.863785 4.02005C0.719785 5.23605 0.647785 6.12805 0.647785 6.69605L0.659785 7.04405C0.659785 7.22005 0.711785 7.39605 0.815785 7.57205C0.927785 7.74805 1.06779 7.84405 1.23579 7.86005L3.58779 8.06405C3.67579 8.07205 3.71979 8.15605 3.71979 8.31605C3.71979 8.46005 3.68379 8.56005 3.61179 8.61605C3.54779 8.67205 3.43179 8.71605 3.26379 8.74805L2.42379 8.77205ZM9.72119 8.68805C9.57719 8.68805 9.46119 8.62805 9.37319 8.50805C9.29319 8.38005 9.22119 8.18805 9.15719 7.93205C9.09319 7.66805 8.99319 7.21205 8.85719 6.56405C8.72119 7.10005 8.46519 7.52805 8.08919 7.84805C7.71319 8.16005 7.25319 8.31605 6.70919 8.31605C6.21319 8.31605 5.79319 8.14405 5.44919 7.80005C5.11319 7.44805 4.86119 6.98805 4.69319 6.42005C4.52519 5.84405 4.44119 5.22405 4.44119 4.56005C4.44119 4.25605 4.46919 3.99605 4.52519 3.78005C4.58919 3.55605 4.66519 3.38805 4.75319 3.27605C4.84919 3.16405 4.94119 3.11205 5.02919 3.12005C5.12519 3.12005 5.17319 3.18405 5.17319 3.31205C5.17319 3.41605 5.14519 3.58005 5.08919 3.80405C5.03319 4.05205 5.00519 4.33605 5.00519 4.65605C5.00519 5.13605 5.07319 5.60405 5.20919 6.06005C5.35319 6.51605 5.56119 6.89205 5.83319 7.18805C6.11319 7.47605 6.44119 7.62005 6.81719 7.62005C7.12919 7.62005 7.41319 7.52805 7.66919 7.34405C7.92519 7.16005 8.12519 6.92805 8.26919 6.64805C8.42119 6.36805 8.49719 6.09205 8.49719 5.82005V3.91205C8.58519 3.74405 8.70519 3.66005 8.85719 3.66005C8.99319 3.66005 9.08519 3.77605 9.13319 4.00805C9.18119 4.24005 9.20519 4.56805 9.20519 4.99205C9.20519 5.35205 9.20119 5.62805 9.19319 5.82005C9.24119 6.08405 9.31319 6.35205 9.40919 6.62405C9.51319 6.89605 9.64119 7.20405 9.79319 7.54805C9.97719 7.97205 10.0692 8.23205 10.0692 8.32805C10.0692 8.56805 9.95319 8.68805 9.72119 8.68805ZM18.8212 8.76005C18.7012 8.76005 18.6292 8.72805 18.6052 8.66405C18.5812 8.59205 18.5692 8.48405 18.5692 8.34005C18.5772 8.28405 18.5812 8.22005 18.5812 8.14805C18.5812 8.06805 18.5852 8.00805 18.5932 7.96805C18.6412 7.58405 18.6652 7.22005 18.6652 6.87605C18.6652 6.11605 18.5372 5.52405 18.2812 5.10005C18.0252 4.66805 17.6212 4.45205 17.0692 4.45205C16.7652 4.45205 16.4612 4.52805 16.1572 4.68005C15.8612 4.83205 15.6172 5.02005 15.4252 5.24405C15.2412 5.46805 15.1492 5.67205 15.1492 5.85605C15.1892 6.08805 15.2612 6.37205 15.3652 6.70805C15.3732 6.74805 15.4052 6.87205 15.4612 7.08005C15.5252 7.28805 15.5572 7.47605 15.5572 7.64405L15.5692 7.87205C15.5692 8.00005 15.5052 8.06405 15.3772 8.06405C15.2172 8.06405 15.0852 7.96005 14.9812 7.75205C14.8852 7.54405 14.7772 7.22005 14.6572 6.78005C14.5372 6.34805 14.4212 5.99205 14.3092 5.71205C14.1972 5.43205 14.0452 5.19205 13.8532 4.99205C13.6612 4.79205 13.4172 4.69205 13.1212 4.69205C12.7132 4.69205 12.3932 4.83205 12.1612 5.11205C11.9372 5.39205 11.8252 5.73605 11.8252 6.14405C11.8252 6.41605 11.8492 6.77605 11.8972 7.22405C11.9372 7.56005 11.9572 7.84805 11.9572 8.08805C11.9572 8.23205 11.9412 8.34005 11.9092 8.41205C11.8772 8.48405 11.8012 8.52005 11.6812 8.52005C11.5212 8.52005 11.4092 8.46805 11.3452 8.36405C11.2812 8.25205 11.2492 8.08405 11.2492 7.86005C11.2492 7.42005 11.2252 6.88805 11.1772 6.26405C11.1692 6.18405 11.1532 5.98005 11.1292 5.65205C11.1052 5.31605 11.1012 4.98005 11.1172 4.64405L11.1292 4.24805C11.1772 4.20005 11.2332 4.17605 11.2972 4.17605C11.3852 4.17605 11.4572 4.23205 11.5132 4.34405C11.5772 4.44805 11.6092 4.60805 11.6092 4.82405C11.7292 4.61605 11.9052 4.42805 12.1372 4.26005C12.3692 4.09205 12.6132 4.00805 12.8692 4.00805C13.3092 4.00805 13.6732 4.10005 13.9612 4.28405C14.2572 4.46005 14.5252 4.74805 14.7652 5.14805C14.9892 4.74005 15.3252 4.39205 15.7732 4.10405C16.2292 3.81605 16.6972 3.67205 17.1772 3.67205C17.6732 3.67205 18.0852 3.86005 18.4132 4.23605C18.7492 4.61205 18.9932 5.06405 19.1452 5.59205C19.3052 6.12005 19.3852 6.60805 19.3852 7.05605C19.3852 7.45605 19.3492 7.84005 19.2772 8.20805C19.2132 8.57605 19.0612 8.76005 18.8212 8.76005ZM22.8336 8.76005C22.3616 8.76005 21.9336 8.65605 21.5496 8.44805C21.1736 8.23205 20.8776 7.93605 20.6616 7.56005C20.4536 7.17605 20.3496 6.74005 20.3496 6.25205C20.3496 5.45205 20.6416 4.85605 21.2256 4.46405C21.8176 4.07205 22.5416 3.87605 23.3976 3.87605C23.7896 3.87605 24.1536 3.97205 24.4896 4.16405C24.8336 4.35605 25.1096 4.63205 25.3176 4.99205C25.5256 5.35205 25.6296 5.76805 25.6296 6.24005C25.6296 6.75205 25.4976 7.20005 25.2336 7.58405C24.9696 7.96005 24.6216 8.25205 24.1896 8.46005C23.7656 8.66005 23.3136 8.76005 22.8336 8.76005ZM22.7016 8.07605C23.4456 8.07605 24.0096 7.90805 24.3936 7.57205C24.7776 7.23605 24.9696 6.74405 24.9696 6.09605C24.9696 5.65605 24.8176 5.27605 24.5136 4.95605C24.2176 4.63605 23.8016 4.47605 23.2656 4.47605C22.9056 4.47605 22.5416 4.54405 22.1736 4.68005C21.8056 4.81605 21.5016 5.02005 21.2616 5.29205C21.0216 5.56405 20.9016 5.89205 20.9016 6.27605C20.9016 6.59605 20.9816 6.89605 21.1416 7.17605C21.3016 7.44805 21.5176 7.66805 21.7896 7.83605C22.0696 7.99605 22.3736 8.07605 22.7016 8.07605ZM26.644 7.33205C26.756 7.24405 26.864 7.20005 26.968 7.20005C27.064 7.20005 27.156 7.22805 27.244 7.28405C27.34 7.34005 27.436 7.41205 27.532 7.50005C27.628 7.58005 27.704 7.64005 27.76 7.68005C27.944 7.82405 28.196 7.93605 28.516 8.01605C28.836 8.09605 29.176 8.13605 29.536 8.13605C29.944 8.13605 30.308 8.06005 30.628 7.90805C30.956 7.74805 31.12 7.53605 31.12 7.27205C31.12 7.03205 31.032 6.84405 30.856 6.70805C30.68 6.56405 30.468 6.46005 30.22 6.39605C29.972 6.33205 29.644 6.27205 29.236 6.21605C28.684 6.15205 28.244 6.07205 27.916 5.97605C27.596 5.88005 27.34 5.72405 27.148 5.50805C26.956 5.28405 26.86 4.97205 26.86 4.57205C26.86 4.14005 27.064 3.82005 27.472 3.61205C27.88 3.39605 28.348 3.28805 28.876 3.28805C29.356 3.28805 29.764 3.39205 30.1 3.60005C30.444 3.80005 30.62 4.08805 30.628 4.46405C30.644 4.68005 30.612 4.85205 30.532 4.98005C30.452 5.10005 30.356 5.16005 30.244 5.16005C30.18 5.16005 30.124 5.13605 30.076 5.08805C30.036 5.04005 30.016 4.97605 30.016 4.89605C30.016 4.76805 30.06 4.62805 30.148 4.47605C30.108 4.28405 29.976 4.14005 29.752 4.04405C29.536 3.94805 29.276 3.90005 28.972 3.90005C28.524 3.90005 28.168 3.98405 27.904 4.15205C27.64 4.31205 27.508 4.50405 27.508 4.72805C27.508 4.96805 27.604 5.15205 27.796 5.28005C27.988 5.40805 28.22 5.50005 28.492 5.55605C28.772 5.60405 29.168 5.65205 29.68 5.70005C30.104 5.75605 30.448 5.82405 30.712 5.90405C30.984 5.98405 31.212 6.14005 31.396 6.37205C31.58 6.59605 31.672 6.92005 31.672 7.34405C31.672 7.78405 31.468 8.13205 31.06 8.38805C30.652 8.63605 30.164 8.76005 29.596 8.76005C28.868 8.76005 28.216 8.63605 27.64 8.38805C27.072 8.14005 26.74 7.78805 26.644 7.33205ZM37.3935 8.26805C37.2415 7.66005 37.1255 7.04805 37.0455 6.43205C36.9655 5.80805 36.8935 4.78405 36.8295 3.36005C36.8295 3.26405 36.8615 3.18005 36.9255 3.10805C36.9975 3.03605 37.0775 3.00005 37.1655 3.00005H37.2735C37.3135 3.26405 37.3415 3.68805 37.3575 4.27205C37.3575 4.33605 37.3655 4.55205 37.3815 4.92005C37.3975 5.28005 37.4375 5.62005 37.5015 5.94005C38.4295 5.85205 39.1695 5.67205 39.7215 5.40005C40.2815 5.12805 40.5615 4.74005 40.5615 4.23605C40.5615 3.60405 40.2815 3.08805 39.7215 2.68805C39.1615 2.28805 38.3175 2.08805 37.1895 2.08805C36.7175 2.08805 36.3175 2.17605 35.9895 2.35205C35.9335 2.37605 35.8935 2.42805 35.8695 2.50805C35.8455 2.58005 35.8255 2.68405 35.8095 2.82005C35.7935 2.96405 35.7735 3.07205 35.7495 3.14405C35.7255 3.21605 35.6815 3.25205 35.6175 3.25205C35.5455 3.25205 35.4975 3.20005 35.4735 3.09605C35.4575 2.98405 35.4495 2.73205 35.4495 2.34005C35.4495 2.11605 35.6015 1.94005 35.9055 1.81205C36.2095 1.68405 36.6015 1.62005 37.0815 1.62005C38.4815 1.62005 39.5215 1.84005 40.2015 2.28005C40.8815 2.72005 41.2215 3.39605 41.2215 4.30805C41.2215 4.79605 41.0255 5.20405 40.6335 5.53205C40.2415 5.86005 39.7655 6.10405 39.2055 6.26405C38.6455 6.41605 38.1095 6.49205 37.5975 6.49205C37.6135 6.58805 37.6295 6.67605 37.6455 6.75605C37.6615 6.83605 37.6735 6.90405 37.6815 6.96005C37.7935 7.50405 37.8495 7.92405 37.8495 8.22005C37.8495 8.39605 37.8255 8.53605 37.7775 8.64005C37.7375 8.74405 37.6455 8.78005 37.5015 8.74805L37.3935 8.26805ZM42.9681 8.74805C42.6401 8.10805 42.3801 7.35605 42.1881 6.49205C42.0041 5.62805 41.9121 4.88005 41.9121 4.24805C41.9121 4.00005 41.9681 3.84005 42.0801 3.76805C42.1441 3.72805 42.1921 3.70805 42.2241 3.70805C42.2801 3.70805 42.3201 3.75205 42.3441 3.84005C42.3761 3.92805 42.4081 4.08805 42.4401 4.32005L42.5001 4.75205C42.5881 4.32005 42.7561 3.98005 43.0041 3.73205C43.2601 3.47605 43.5721 3.34805 43.9401 3.34805C44.3481 3.34805 44.6521 3.42805 44.8521 3.58805C45.0521 3.74005 45.1521 3.99605 45.1521 4.35605C44.7521 4.16405 44.3881 4.06805 44.0601 4.06805C43.7481 4.06805 43.4801 4.15205 43.2561 4.32005C43.0321 4.48805 42.8761 4.73605 42.7881 5.06405C42.7161 5.28805 42.6801 5.50005 42.6801 5.70005C42.6801 5.91605 42.7081 6.12005 42.7641 6.31205C42.8281 6.49605 42.9241 6.72405 43.0521 6.99605C43.1721 7.27605 43.2641 7.51605 43.3281 7.71605C43.4001 7.91605 43.4401 8.13205 43.4481 8.36405C43.4481 8.50005 43.4001 8.60005 43.3041 8.66405C43.2081 8.72005 43.0961 8.74805 42.9681 8.74805ZM48.111 8.76005C47.639 8.76005 47.211 8.65605 46.827 8.44805C46.451 8.23205 46.155 7.93605 45.939 7.56005C45.731 7.17605 45.627 6.74005 45.627 6.25205C45.627 5.45205 45.919 4.85605 46.503 4.46405C47.095 4.07205 47.819 3.87605 48.675 3.87605C49.067 3.87605 49.431 3.97205 49.767 4.16405C50.111 4.35605 50.387 4.63205 50.595 4.99205C50.803 5.35205 50.907 5.76805 50.907 6.24005C50.907 6.75205 50.775 7.20005 50.511 7.58405C50.247 7.96005 49.899 8.25205 49.467 8.46005C49.043 8.66005 48.591 8.76005 48.111 8.76005ZM47.979 8.07605C48.723 8.07605 49.287 7.90805 49.671 7.57205C50.055 7.23605 50.247 6.74405 50.247 6.09605C50.247 5.65605 50.095 5.27605 49.791 4.95605C49.495 4.63605 49.079 4.47605 48.543 4.47605C48.183 4.47605 47.819 4.54405 47.451 4.68005C47.083 4.81605 46.779 5.02005 46.539 5.29205C46.299 5.56405 46.179 5.89205 46.179 6.27605C46.179 6.59605 46.259 6.89605 46.419 7.17605C46.579 7.44805 46.795 7.66805 47.067 7.83605C47.347 7.99605 47.651 8.07605 47.979 8.07605ZM53.9133 8.73605C53.5373 8.73605 53.2093 8.60805 52.9293 8.35205C52.6573 8.09605 52.4493 7.76405 52.3053 7.35605C52.1693 6.94805 52.1013 6.52405 52.1013 6.08405C52.1013 5.31605 52.2613 4.66805 52.5813 4.14005C52.9093 3.61205 53.4053 3.34805 54.0693 3.34805C54.4693 3.34805 54.8173 3.42005 55.1133 3.56405C55.4173 3.70005 55.8133 3.93205 56.3013 4.26005L56.6133 4.47605C56.5733 4.21205 56.5133 3.90805 56.4333 3.56405C56.3533 3.22005 56.3013 2.98405 56.2773 2.85605C56.1413 2.23205 56.0413 1.76805 55.9773 1.46405C55.9213 1.15205 55.8933 0.876046 55.8933 0.636046C55.8933 0.212046 56.0133 4.64916e-05 56.2533 4.64916e-05C56.3413 0.192046 56.4453 0.604046 56.5653 1.23605C56.6853 1.86005 56.8373 2.71605 57.0213 3.80405C57.2133 4.95605 57.3813 5.89605 57.5253 6.62405C57.6693 7.35205 57.7893 7.80805 57.8853 7.99205C57.8853 8.17605 57.7493 8.26805 57.4773 8.26805C57.2693 8.26805 57.1253 8.14805 57.0453 7.90805C56.9733 7.66805 56.9293 7.24805 56.9133 6.64805H56.8173C56.4813 7.25605 56.0453 7.75605 55.5093 8.14805C54.9733 8.54005 54.4413 8.73605 53.9133 8.73605ZM54.0693 8.14805C54.3973 8.14805 54.7493 8.01205 55.1253 7.74005C55.5093 7.46005 55.8333 7.12405 56.0973 6.73205C56.3613 6.33205 56.4933 5.97205 56.4933 5.65205V5.29205C55.6693 4.42805 54.9093 3.99605 54.2133 3.99605C53.7253 3.99605 53.3493 4.17605 53.0853 4.53605C52.8213 4.88805 52.6893 5.35205 52.6893 5.92805L52.7013 6.18005C52.7493 6.78805 52.8853 7.26805 53.1093 7.62005C53.3333 7.97205 53.6533 8.14805 54.0693 8.14805ZM64.1196 8.68805C63.9756 8.68805 63.8596 8.62805 63.7716 8.50805C63.6916 8.38005 63.6196 8.18805 63.5556 7.93205C63.4916 7.66805 63.3916 7.21205 63.2556 6.56405C63.1196 7.10005 62.8636 7.52805 62.4876 7.84805C62.1116 8.16005 61.6516 8.31605 61.1076 8.31605C60.6116 8.31605 60.1916 8.14405 59.8476 7.80005C59.5116 7.44805 59.2596 6.98805 59.0916 6.42005C58.9236 5.84405 58.8396 5.22405 58.8396 4.56005C58.8396 4.25605 58.8676 3.99605 58.9236 3.78005C58.9876 3.55605 59.0636 3.38805 59.1516 3.27605C59.2476 3.16405 59.3396 3.11205 59.4276 3.12005C59.5236 3.12005 59.5716 3.18405 59.5716 3.31205C59.5716 3.41605 59.5436 3.58005 59.4876 3.80405C59.4316 4.05205 59.4036 4.33605 59.4036 4.65605C59.4036 5.13605 59.4716 5.60405 59.6076 6.06005C59.7516 6.51605 59.9596 6.89205 60.2316 7.18805C60.5116 7.47605 60.8396 7.62005 61.2156 7.62005C61.5276 7.62005 61.8116 7.52805 62.0676 7.34405C62.3236 7.16005 62.5236 6.92805 62.6676 6.64805C62.8196 6.36805 62.8956 6.09205 62.8956 5.82005V3.91205C62.9836 3.74405 63.1036 3.66005 63.2556 3.66005C63.3916 3.66005 63.4836 3.77605 63.5316 4.00805C63.5796 4.24005 63.6036 4.56805 63.6036 4.99205C63.6036 5.35205 63.5996 5.62805 63.5916 5.82005C63.6396 6.08405 63.7116 6.35205 63.8076 6.62405C63.9116 6.89605 64.0396 7.20405 64.1916 7.54805C64.3756 7.97205 64.4676 8.23205 64.4676 8.32805C64.4676 8.56805 64.3516 8.68805 64.1196 8.68805ZM68.3837 8.76005C67.4477 8.76005 66.7197 8.54805 66.1997 8.12405C65.6877 7.69205 65.4317 7.02805 65.4317 6.13205C65.4317 5.67605 65.5437 5.24405 65.7677 4.83605C65.9997 4.42005 66.3077 4.08805 66.6917 3.84005C67.0837 3.58405 67.5037 3.45605 67.9517 3.45605C68.4077 3.45605 68.7957 3.55605 69.1157 3.75605C69.4357 3.94805 69.5957 4.22805 69.5957 4.59605C69.5957 4.85205 69.5477 5.03605 69.4517 5.14805C69.3637 5.25205 69.2637 5.30405 69.1517 5.30405C69.1517 4.92005 69.0477 4.60805 68.8397 4.36805C68.6317 4.12805 68.3357 4.00805 67.9517 4.00805C67.5677 4.00805 67.2357 4.11205 66.9557 4.32005C66.6757 4.52005 66.4597 4.78805 66.3077 5.12405C66.1637 5.45205 66.0917 5.79605 66.0917 6.15605C66.0917 6.91605 66.3477 7.43205 66.8597 7.70405C67.3797 7.97605 68.0637 8.11205 68.9117 8.11205C69.1997 8.11205 69.5757 8.09605 70.0397 8.06405C70.0557 8.06405 70.0917 8.08005 70.1477 8.11205C70.2037 8.14405 70.2477 8.16405 70.2797 8.17205V8.24405C70.2797 8.47605 70.0757 8.62005 69.6677 8.67605C69.2597 8.73205 68.8317 8.76005 68.3837 8.76005ZM72.6957 8.74805C72.6157 8.76405 72.5637 8.77205 72.5397 8.77205C72.2917 8.77205 72.1197 8.58805 72.0237 8.22005C71.9357 7.85205 71.8917 7.33605 71.8917 6.67205C71.8917 6.40005 71.8997 5.97605 71.9157 5.40005C71.9317 5.04805 71.9397 4.78405 71.9397 4.60805C70.9557 4.60805 70.4637 4.49605 70.4637 4.27205C70.4637 4.20005 70.4717 4.14405 70.4877 4.10405C70.5117 4.06405 70.5597 4.04405 70.6317 4.04405L71.9397 3.96005C71.9317 3.56805 71.9117 3.14005 71.8797 2.67605C71.8477 2.26005 71.8277 1.87605 71.8197 1.52405C71.8197 1.43605 71.8557 1.37605 71.9277 1.34405C71.9997 1.30405 72.0757 1.28405 72.1557 1.28405C72.2517 1.28405 72.3317 1.33605 72.3957 1.44005C72.4597 1.53605 72.4917 1.63605 72.4917 1.74005L72.5757 3.93605L73.5717 3.98405C73.7237 3.96805 73.8517 3.99605 73.9557 4.06805C74.0677 4.14005 74.1277 4.26005 74.1357 4.42805C73.9677 4.50005 73.7837 4.54405 73.5837 4.56005C73.3837 4.57605 73.0477 4.58405 72.5757 4.58405C72.5757 5.32805 72.6117 6.55205 72.6837 8.25605C72.6837 8.43205 72.6837 8.55605 72.6837 8.62805C72.6917 8.69205 72.6957 8.73205 72.6957 8.74805ZM75.5989 8.76005C75.4149 8.76005 75.2669 8.49205 75.1549 7.95605C75.0429 7.41205 74.9709 6.94405 74.9389 6.55205C74.9069 6.16005 74.8629 5.54005 74.8069 4.69205C74.7989 4.55605 74.7949 4.38005 74.7949 4.16405C74.7949 3.89205 74.8149 3.70405 74.8549 3.60005C74.9029 3.49605 74.9789 3.44405 75.0829 3.44405C75.1709 3.44405 75.2389 3.46405 75.2869 3.50405C75.3429 3.53605 75.3909 3.59205 75.4309 3.67205L75.4189 4.15205C75.4189 4.66405 75.4429 5.14805 75.4909 5.60405C75.5469 6.06005 75.6309 6.67205 75.7429 7.44005C75.8069 7.77605 75.8509 8.05205 75.8749 8.26805C75.8909 8.38005 75.8709 8.49205 75.8149 8.60405C75.7589 8.70805 75.6869 8.76005 75.5989 8.76005ZM75.2989 2.16005C75.1229 2.16005 74.9909 2.09205 74.9029 1.95605C74.8229 1.82005 74.7829 1.65205 74.7829 1.45205C74.7829 1.36405 74.7869 1.30005 74.7949 1.26005C74.7869 1.13205 74.8589 1.06805 75.0109 1.06805C75.1229 1.06805 75.2349 1.09605 75.3469 1.15205C75.4669 1.20005 75.5029 1.23605 75.4549 1.26005C75.5349 1.46805 75.5749 1.63205 75.5749 1.75205C75.5749 1.85605 75.5509 1.94005 75.5029 2.00405C75.4549 2.06005 75.3869 2.11205 75.2989 2.16005ZM79.4352 8.76005C78.9632 8.76005 78.5352 8.65605 78.1512 8.44805C77.7752 8.23205 77.4792 7.93605 77.2632 7.56005C77.0552 7.17605 76.9512 6.74005 76.9512 6.25205C76.9512 5.45205 77.2432 4.85605 77.8272 4.46405C78.4192 4.07205 79.1432 3.87605 79.9992 3.87605C80.3912 3.87605 80.7552 3.97205 81.0912 4.16405C81.4352 4.35605 81.7112 4.63205 81.9192 4.99205C82.1272 5.35205 82.2312 5.76805 82.2312 6.24005C82.2312 6.75205 82.0992 7.20005 81.8352 7.58405C81.5712 7.96005 81.2232 8.25205 80.7912 8.46005C80.3672 8.66005 79.9152 8.76005 79.4352 8.76005ZM79.3032 8.07605C80.0472 8.07605 80.6112 7.90805 80.9952 7.57205C81.3792 7.23605 81.5712 6.74405 81.5712 6.09605C81.5712 5.65605 81.4192 5.27605 81.1152 4.95605C80.8192 4.63605 80.4032 4.47605 79.8672 4.47605C79.5072 4.47605 79.1432 4.54405 78.7752 4.68005C78.4072 4.81605 78.1032 5.02005 77.8632 5.29205C77.6232 5.56405 77.5032 5.89205 77.5032 6.27605C77.5032 6.59605 77.5832 6.89605 77.7432 7.17605C77.9032 7.44805 78.1192 7.66805 78.3912 7.83605C78.6712 7.99605 78.9752 8.07605 79.3032 8.07605ZM84.3256 8.79605C84.2136 8.82805 84.1496 8.84405 84.1336 8.84405C84.0696 8.84405 84.0016 8.81205 83.9296 8.74805C83.6656 8.35605 83.4736 7.67205 83.3536 6.69605C83.2416 5.72005 83.1856 4.88005 83.1856 4.17605C83.1856 4.06405 83.2656 4.00805 83.4256 4.00805C83.6656 4.00805 83.7856 4.14005 83.7856 4.40405C83.7856 4.47605 83.7816 4.53605 83.7736 4.58405C83.8456 4.41605 83.9816 4.24405 84.1816 4.06805C84.3816 3.89205 84.6136 3.74405 84.8776 3.62405C85.1416 3.50405 85.4096 3.44405 85.6816 3.44405C86.5376 3.44405 87.1616 3.82405 87.5536 4.58405C87.9456 5.33605 88.1416 6.27205 88.1416 7.39205C88.1416 7.77605 88.1016 8.08405 88.0216 8.31605C87.9416 8.54005 87.8336 8.65205 87.6976 8.65205C87.5536 8.65205 87.4816 8.60805 87.4816 8.52005C87.5376 8.09605 87.5656 7.68005 87.5656 7.27205C87.5656 6.24005 87.3856 5.46005 87.0256 4.93205C86.6656 4.39605 86.1896 4.12805 85.5976 4.12805C85.3096 4.12805 85.0296 4.20005 84.7576 4.34405C84.4936 4.48805 84.2776 4.68805 84.1096 4.94405C83.9496 5.20005 83.8696 5.49205 83.8696 5.82005C83.8696 6.18805 83.8896 6.50805 83.9296 6.78005C83.9696 7.05205 84.0336 7.38005 84.1216 7.76405C84.2176 8.14005 84.2856 8.48405 84.3256 8.79605Z" fill="white"/>
</svg>
