<svg width="762" height="898" viewBox="0 0 762 898" fill="none" xmlns="http://www.w3.org/2000/svg">
<path d="M257.154 448.51L1.15399 1.01025L304.154 124.51L323.154 158.51H195.654L382.654 478.01L565.654 159.01H442.654L461.154 124.01L760.654 2.01025L424.154 586.51L257.154 448.51Z" fill="black"/>
<path d="M109.654 795.01V386.51L531.154 731.01H535.654V480.01L652.154 385.808V896.01H588.654L226.154 599.51V896.01L109.654 795.01Z" fill="black"/>
<path d="M257.154 448.51L1.15399 1.01025L304.154 124.51L323.154 158.51H195.654L382.654 478.01L565.654 159.01H442.654L461.154 124.01L760.654 2.01025L424.154 586.51L257.154 448.51Z" stroke="black"/>
<path d="M109.654 795.01V386.51L531.154 731.01H535.654V480.01L652.154 385.808V896.01H588.654L226.154 599.51V896.01L109.654 795.01Z" stroke="black"/>
</svg>
